<svg width="683" height="815" viewBox="0 0 683 815" fill="none" xmlns="http://www.w3.org/2000/svg">
<path d="M408 41H409L411 75L413 90L422 80L429 72L433 70L426 82L418 93L416 96L441 99L454 101L455 103L442 106L427 108L419 109V111H421L430 122L436 130L435 134L431 132L427 126L419 117L413 112L411 125L408 158L406 161L404 158L402 134L398 114L388 125L385 130L381 135H379L381 129L387 119L394 110L388 108L361 104L359 103V101L383 98L394 96V93L384 76V74H386L396 87L397 91H399L400 84L405 52L406 44L408 41ZM405 79L402 94L401 98L386 101L385 103L400 107L403 118L405 128H406L409 111L411 107L423 104L429 103L426 101L413 97L409 94L407 79H405Z" fill="currentColor"/>
<path d="M440 134L444 135L450 143V146L445 144L439 138L440 134Z" fill="currentColor"/>
<path d="M454 147L458 148L462 152V154L459 155L453 150L454 147Z" fill="currentColor"/>
<path d="M465 157L470 158L474 163L473 165L468 163L465 160V157Z" fill="currentColor"/>
<path d="M570 159L573 160L575 178L577 202L579 216L580 218L594 210L604 204L607 205L592 215L585 219H583V221H591L617 225L629 227L628 230L612 233L583 238L593 250L602 261V263L598 261L593 256V254L589 252L580 243V241H578L577 255L572 298L570 306L568 305L564 270L561 248L560 243L549 256L539 266L533 273L532 271L541 258L555 240V238L545 236L515 232L513 231L514 228L527 225L553 220L556 219L547 210L535 194L533 191L537 193L545 200L550 205V207H552L559 215L560 216L562 208L568 171L569 160L570 159ZM570 189L565 219V223L532 228L536 230L554 233L564 235L567 253L569 270L571 266L575 236L576 234L608 229V228L587 225L575 224L572 198L571 189H570Z" fill="currentColor"/>
<path d="M477 167L482 168L487 172V175L481 174L477 170V167Z" fill="currentColor"/>
<path d="M491 179L496 181L501 185V187L498 188L492 184L490 180L491 179Z" fill="currentColor"/>
<path d="M593 189H596L594 193L591 198L586 204L585 202L591 192L593 189Z" fill="currentColor"/>
<path d="M504 190L510 192L513 196L512 199L506 196L503 192L504 190Z" fill="currentColor"/>
<path d="M554 190L557 194L558 205L556 201L553 191L554 190Z" fill="currentColor"/>
<path d="M517 200L522 202L525 205L524 208L519 207L516 203L517 200Z" fill="currentColor"/>
<path d="M529 209L534 212L538 216L537 220L534 219V217H532V215L528 213V210L529 209Z" fill="currentColor"/>
<path d="M596 245L603 246L611 250V253L596 246V245Z" fill="currentColor"/>
<path d="M541 249V252L535 257V254L538 251L541 249Z" fill="currentColor"/>
<path d="M586 255L588 257L594 274L593 277L590 273L586 260V255Z" fill="currentColor"/>
<path d="M557 259H558L557 272L555 277H554V268L557 259Z" fill="currentColor"/>
<path d="M527 259L530 261L523 269L520 271H516L517 267L525 260L527 259Z" fill="currentColor"/>
<path d="M509 272H514L512 277L507 281L504 280L505 276L509 272Z" fill="currentColor"/>
<path d="M497 283H501L500 287L495 291H491L493 287L497 283Z" fill="currentColor"/>
<path d="M485 294L488 296L486 300L481 304L477 303L479 299L485 294Z" fill="currentColor"/>
<path d="M472 306L475 307L473 312L468 316L464 315L465 311L472 306Z" fill="currentColor"/>
<path d="M423 311L426 313L428 330L430 348L431 357L442 348L450 340L451 343L448 347H446L444 351L437 359L436 362L453 365L468 367L471 368V370L462 372L436 376L438 380L447 391L451 397L450 400L432 382L430 381L429 391L426 423L424 429H422L420 416L417 389L415 382L409 387L403 394H401L399 398L396 399L397 395L408 381L412 376L403 375L376 372V368L403 363L414 362L407 352L403 344H406L413 352L415 355L417 349L421 327L423 311ZM424 340L423 341L420 359L419 364L398 368L397 370L414 373L420 374L423 397H424L427 378V374L437 372L449 370L445 368L432 366L429 363L427 357L425 340H424Z" fill="currentColor"/>
<path d="M459 318L461 319V324L455 329L454 324L459 318Z" fill="currentColor"/>
<path d="M451 328H453L451 333L447 337H445L446 331L451 328Z" fill="currentColor"/>
<path d="M442 337L444 338L442 343L437 345L439 339L442 337Z" fill="currentColor"/>
<path d="M376 374H380L378 378L371 380L369 378L373 375L376 374Z" fill="currentColor"/>
<path d="M363 379H365V383L359 386L355 385L360 380L363 379Z" fill="currentColor"/>
<path d="M346 386H351L349 390L344 392H340L342 388L346 386Z" fill="currentColor"/>
<path d="M332 392L336 393L331 398L326 399V395L332 392Z" fill="currentColor"/>
<path d="M318 398L321 399L320 402L314 405H309V402L314 399L318 398Z" fill="currentColor"/>
<path d="M299 405L304 406L303 409L298 411H293V408L299 405Z" fill="currentColor"/>
<path d="M282 411H288L286 415L283 417H278L279 413L282 411Z" fill="currentColor"/>
<path d="M161 416L164 419L168 452V459L178 451L185 444H187L185 449L176 459L173 463L185 466L204 470V472L181 476L174 478L182 492L184 499H182L176 490L169 482H168L165 503L163 521L162 525H160L153 482L145 492L139 499L137 498L144 488L150 478L145 476L122 473L117 472L118 470L131 467L147 465L150 463L141 451L138 446V444L142 446L151 456L155 460L158 433L160 417L161 416ZM161 445L157 466L149 469L141 470V471L156 475L158 483L159 495L161 496L165 478L166 476L184 471V470L165 465L162 445H161Z" fill="currentColor"/>
<path d="M268 417L273 418L271 422L266 424L262 423L264 419L268 417Z" fill="currentColor"/>
<path d="M253 423H258L256 427L250 430L247 429V427L253 423Z" fill="currentColor"/>
<path d="M239 429H243L242 433L238 435H233L234 431L239 429Z" fill="currentColor"/>
<path d="M421 431L424 432L425 436L422 445L419 444V435L421 431Z" fill="currentColor"/>
<path d="M226 434L229 435L227 439L222 442L218 441L220 437L226 434Z" fill="currentColor"/>
<path d="M211 441L214 442L212 446L205 449L204 444L211 441Z" fill="currentColor"/>
<path d="M196 447L199 448L198 451L188 456H186L187 452L193 448L196 447Z" fill="currentColor"/>
<path d="M418 450L422 452L421 461L418 463L416 461L417 452L418 450Z" fill="currentColor"/>
<path d="M417 468L420 469V477L419 479H416L415 474L417 468Z" fill="currentColor"/>
<path d="M415 484L419 485V492L418 494H415L414 491L415 484Z" fill="currentColor"/>
<path d="M151 499L153 501L152 509L149 515L146 514L148 504L151 499Z" fill="currentColor"/>
<path d="M416 498L418 499V506L417 510L413 509L414 499L416 498Z" fill="currentColor"/>
<path d="M413 514L417 516V539L418 558L422 557V555L430 548L437 541L442 539L436 548L427 558L424 562H422V564L434 566L457 570L458 573L445 575L425 578H420L424 584L434 597V600L430 598L422 590L418 585L411 624L408 625L407 619L404 591L394 604L393 600L401 586L403 581L391 587L381 594L375 595L376 590L395 580H397V578L390 577L380 575L364 573V569L371 567L400 563L390 550L384 538L388 539L398 552L403 558L407 543L411 523L413 514ZM412 543L407 562L405 566L397 568L383 570L386 572L399 575L406 579L408 583L410 600L412 598L415 575L423 574L437 571V570L424 568L416 566L414 559L413 543H412Z" fill="currentColor"/>
<path d="M145 520H147L146 529L143 534L141 533L142 524L145 520Z" fill="currentColor"/>
<path d="M137 540L141 541L138 553L135 555L134 550L137 540Z" fill="currentColor"/>
<path d="M133 558H135L133 570L129 572L128 568L131 560L133 558Z" fill="currentColor"/>
<path d="M126 575H129V582L127 587L124 586L125 576L126 575Z" fill="currentColor"/>
<path d="M122 590L124 591V597L121 602L118 601L119 594L122 590Z" fill="currentColor"/>
<path d="M368 595H371L370 600L361 605L358 604L359 601L368 595Z" fill="currentColor"/>
<path d="M351 606H354L353 610L349 613L342 615L343 611L351 606Z" fill="currentColor"/>
<path d="M115 608H119L117 617L113 619L114 611L115 608Z" fill="currentColor"/>
<path d="M336 615H338L337 619L329 624L326 623V621L333 616L336 615Z" fill="currentColor"/>
<path d="M110 624L113 625L112 632L109 636H106L107 629L110 624Z" fill="currentColor"/>
<path d="M320 624L323 625L321 629L313 634H311L312 629L317 625L320 624Z" fill="currentColor"/>
<path d="M304 635L306 636L304 640L299 643H296V639L304 635Z" fill="currentColor"/>
<path d="M105 639L107 640L106 647L103 653L100 652L101 644L103 640L105 639Z" fill="currentColor"/>
<path d="M288 644H291L290 648L285 652L282 653L281 649L288 644Z" fill="currentColor"/>
<path d="M82 646H85L87 660L89 679L90 681L92 677L94 678L92 688V694L107 679L111 677V680L98 695L96 697L105 700L128 704V708L97 713H95L107 729L113 737L112 739L102 730V728H100L93 720V718H91L90 729L84 763L83 766H81L79 754L76 724V716H74V718L66 725L56 736L54 735L60 726L70 714L71 712L61 711L36 707L33 704L41 702L73 699L65 688L64 685H62L56 677L55 674L59 675L71 688L75 693L80 666L82 646ZM84 671L81 688L79 697L78 700L73 702L59 704L57 706L73 709L78 710L82 735L84 738L88 716L90 710L111 706L107 704L90 701L87 692L85 671H84Z" fill="currentColor"/>
<path d="M276 653H278L277 657L269 662L265 661L270 656L276 653Z" fill="currentColor"/>
<path d="M258 664H262V667L255 671H251L253 667L258 664Z" fill="currentColor"/>
<path d="M244 672L248 673L244 678L240 680H237L239 675L244 672Z" fill="currentColor"/>
<path d="M229 681H233L231 685L224 690H221L222 686L227 682L229 681Z" fill="currentColor"/>
<path d="M210 692H216L215 696L210 699L207 698L208 694L210 692Z" fill="currentColor"/>
<path d="M192 701H200L202 704V710L199 713L193 714L187 710L188 705L192 701Z" fill="currentColor"/>
<path d="M137 704L146 705V709L136 708V705L137 704Z" fill="currentColor"/>
<path d="M152 705H163V709H154L152 708V705Z" fill="currentColor"/>
<path d="M171 705L179 706V709L178 710H171L169 706L171 705Z" fill="currentColor"/>
<path d="M372 0L377 1L378 2V7L377 8H372L370 5L371 1L372 0Z" fill="currentColor"/>
<path d="M433 2H438L440 7L438 10H433L432 9L433 2Z" fill="currentColor"/>
<path d="M345 31L350 32L351 36L349 38L344 37L345 31Z" fill="currentColor"/>
<path d="M455 40L459 43L457 47L452 46L453 41L455 40Z" fill="currentColor"/>
<path d="M327 67L331 68L330 72L326 71L327 67Z" fill="currentColor"/>
<path d="M293 90L298 91L299 96L298 99H292L290 97V92L293 90Z" fill="currentColor"/>
<path d="M505 102L510 103L509 108L504 109L503 104L505 102Z" fill="currentColor"/>
<path d="M641 118L646 119V124L641 125L639 123L640 119L641 118Z" fill="currentColor"/>
<path d="M313 138L318 139L319 144L316 147L311 146L310 140L313 138Z" fill="currentColor"/>
<path d="M624 161L628 162V166L624 167L623 162L624 161Z" fill="currentColor"/>
<path d="M259 165L263 167L264 171L260 174L256 173L255 169L259 165Z" fill="currentColor"/>
<path d="M382 169L385 171V175L380 174L381 170L382 169Z" fill="currentColor"/>
<path d="M205 175L209 176L208 180L204 179L205 175Z" fill="currentColor"/>
<path d="M676 194H681L683 196L682 202H675L674 197L676 194Z" fill="currentColor"/>
<path d="M449 198L453 199L454 203L453 205L448 204L447 199L449 198Z" fill="currentColor"/>
<path d="M263 299L267 300L266 305L261 304V300L263 299Z" fill="currentColor"/>
<path d="M401 203L406 204L405 209L401 208L400 204L401 203Z" fill="currentColor"/>
<path d="M208 241L213 242L214 246L213 248H208L207 247V242L208 241Z" fill="currentColor"/>
<path d="M202 305L206 307V311L201 310L202 305Z" fill="currentColor"/>
<path d="M285 235L289 236L290 239L288 241H284L283 237L285 235Z" fill="currentColor"/>
<path d="M483 238L487 239V243H483L482 239L483 238Z" fill="currentColor"/>
<path d="M355 243L359 245V250L356 253L352 252L351 246L355 243Z" fill="currentColor"/>
<path d="M426 251H431L432 255L430 257L426 256L425 252L426 251Z" fill="currentColor"/>
<path d="M147 262L152 263L153 265L151 270L147 271L144 270V264L147 262Z" fill="currentColor"/>
<path d="M676 272L682 273L681 279L676 280L674 277L675 273L676 272Z" fill="currentColor"/>
<path d="M641 287L645 289L644 293L641 294L639 293L640 288L641 287Z" fill="currentColor"/>
<path d="M316 300L321 302L320 306L317 308L313 307V302L316 300Z" fill="currentColor"/>
<path d="M115 306L120 307V312L119 313H114L113 308L115 306Z" fill="currentColor"/>
<path d="M538 318L542 319V323L538 324L536 321L538 318Z" fill="currentColor"/>
<path d="M596 340H600L601 343L599 345H596L595 341L596 340Z" fill="currentColor"/>
<path d="M166 349L171 350L172 354L169 357L164 355L165 350L166 349Z" fill="currentColor"/>
<path d="M295 349L300 350V355L295 357L293 355L294 350L295 349Z" fill="currentColor"/>
<path d="M73 351L77 354L76 358L71 359L69 357L70 352L73 351Z" fill="currentColor"/>
<path d="M524 367L529 369L528 374L524 375L522 374V369L524 367Z" fill="currentColor"/>
<path d="M621 370H626L627 374L626 376H621L620 371L621 370Z" fill="currentColor"/>
<path d="M118 379L122 380L123 385L119 386L116 383L118 379Z" fill="currentColor"/>
<path d="M212 385L216 386L217 387V392L212 393L210 391L211 386L212 385Z" fill="currentColor"/>
<path d="M58 410L61 411L60 416L57 415L58 410Z" fill="currentColor"/>
<path d="M493 424L497 425L496 429L492 428L493 424Z" fill="currentColor"/>
<path d="M87 428L92 430L91 435L89 437L84 436V431L87 428Z" fill="currentColor"/>
<path d="M354 438L359 440L358 445H353L352 440L354 438Z" fill="currentColor"/>
<path d="M20 442L25 443L24 448L20 447L19 444L20 442Z" fill="currentColor"/>
<path d="M264 469H268L267 474L263 473L264 469Z" fill="currentColor"/>
<path d="M527 473L531 474L533 478L531 480L526 479V474L527 473Z" fill="currentColor"/>
<path d="M325 475L328 477L327 482L324 483L321 480L323 476L325 475Z" fill="currentColor"/>
<path d="M478 494L483 495L484 500L482 502L477 501L476 496L478 494Z" fill="currentColor"/>
<path d="M84 497L88 498L89 503L86 506L81 505L80 500L81 498L84 497Z" fill="currentColor"/>
<path d="M212 507L216 508L217 512L215 514L210 513L211 508L212 507Z" fill="currentColor"/>
<path d="M350 524H355L356 529L355 530H350L349 525L350 524Z" fill="currentColor"/>
<path d="M276 529L281 530L280 535L276 536L274 532L276 529Z" fill="currentColor"/>
<path d="M565 532L569 534L568 540L563 541L562 540V534L565 532Z" fill="currentColor"/>
<path d="M46 534L51 535V539L47 540L45 536L46 534Z" fill="currentColor"/>
<path d="M504 553H509L510 559L508 561L504 560L503 555L504 553Z" fill="currentColor"/>
<path d="M235 573L239 574L240 577L237 581L233 580V575L235 573Z" fill="currentColor"/>
<path d="M1 577L4 578L3 582L0 581L1 577Z" fill="currentColor"/>
<path d="M80 584L83 585L81 590L77 589L78 585L80 584Z" fill="currentColor"/>
<path d="M539 595L543 596L541 600L538 599L539 595Z" fill="currentColor"/>
<path d="M169 617H174L175 618V623L173 625L168 624L169 617Z" fill="currentColor"/>
<path d="M492 623L497 624L498 629L496 632H491L490 631V625L492 623Z" fill="currentColor"/>
<path d="M237 636L241 639L240 642H236L235 638L237 636Z" fill="currentColor"/>
<path d="M4 643H9L10 650L4 651L2 649L3 644L4 643Z" fill="currentColor"/>
<path d="M440 661L445 662L444 666L440 667L439 662L440 661Z" fill="currentColor"/>
<path d="M544 661L548 662L549 667L545 670L541 669V664L544 661Z" fill="currentColor"/>
<path d="M351 664L355 665L356 670L353 673L348 671V666L351 664Z" fill="currentColor"/>
<path d="M304 702L308 704L307 709L304 710L302 709V704L304 702Z" fill="currentColor"/>
<path d="M252 725L255 727L254 731L250 732L249 729L252 725Z" fill="currentColor"/>
<path d="M7 737L12 738L11 743H7L6 739L7 737Z" fill="currentColor"/>
<path d="M359 743L363 744L364 748L361 751L358 750L357 745L359 743Z" fill="currentColor"/>
<path d="M280 772L284 773L283 778H279L277 775L280 772Z" fill="currentColor"/>
<path d="M29 792H34L35 793V799L30 801L27 800L26 795L29 792Z" fill="currentColor"/>
<path d="M112 798H116L115 803H111L110 800H112V798Z" fill="currentColor"/>
<path d="M331 805L336 807V812L331 815L327 813V808L331 805Z" fill="currentColor"/>
<path d="M377 309H382L384 311L383 317H376L375 312L377 309Z" fill="currentColor"/>
<path d="M186 759H191L193 761L192 767H185L184 762L186 759Z" fill="currentColor"/>
</svg>
